<svg xmlns="http://www.w3.org/2000/svg" xmlns:xlink="http://www.w3.org/1999/xlink" width="512.001" height="512" x="0" y="0" enable-background="new 0 0 512.001 512" version="1.1" viewBox="0 0 512.001 512" xml:space="preserve"><g id="HG"><g><g><rect width="512.001" height="512" fill="#005CA0"/><line x1="170.667" x2="170.667" y1="0" y2="512" fill="none" stroke="#FFF" stroke-width="1.75"/><line x1="85.333" x2="85.333" y1="0" y2="512" fill="none" stroke="#FFF" opacity=".8"/><g><g><line x1="68.267" x2="68.267" y1="0" y2="512" fill="none" stroke="#FFF" opacity=".4"/><line x1="51.2" x2="51.2" y1="0" y2="512" fill="none" stroke="#FFF" opacity=".4"/><line x1="34.133" x2="34.133" y1="0" y2="512" fill="none" stroke="#FFF" opacity=".4"/><line x1="17.066" x2="17.066" y1="0" y2="512" fill="none" stroke="#FFF" opacity=".4"/></g><g><line x1="238.934" x2="238.934" y1="0" y2="512" fill="none" stroke="#FFF" opacity=".4"/><line x1="221.867" x2="221.867" y1="0" y2="512" fill="none" stroke="#FFF" opacity=".4"/><line x1="204.801" x2="204.801" y1="0" y2="512" fill="none" stroke="#FFF" opacity=".4"/><line x1="187.733" x2="187.733" y1="0" y2="512" fill="none" stroke="#FFF" opacity=".4"/></g><g><line x1="324.268" x2="324.268" y1="0" y2="512" fill="none" stroke="#FFF" opacity=".4"/><line x1="307.2" x2="307.2" y1="0" y2="512" fill="none" stroke="#FFF" opacity=".4"/><line x1="290.134" x2="290.134" y1="0" y2="512" fill="none" stroke="#FFF" opacity=".4"/><line x1="273.067" x2="273.067" y1="0" y2="512" fill="none" stroke="#FFF" opacity=".4"/></g><g><line x1="409.601" x2="409.601" y1="0" y2="512" fill="none" stroke="#FFF" opacity=".4"/><line x1="392.533" x2="392.533" y1="0" y2="512" fill="none" stroke="#FFF" opacity=".4"/><line x1="375.467" x2="375.467" y1="0" y2="512" fill="none" stroke="#FFF" opacity=".4"/><line x1="358.4" x2="358.4" y1="0" y2="512" fill="none" stroke="#FFF" opacity=".4"/></g><g><line x1="494.934" x2="494.934" y1="0" y2="512" fill="none" stroke="#FFF" opacity=".4"/><line x1="477.866" x2="477.866" y1="0" y2="512" fill="none" stroke="#FFF" opacity=".4"/><line x1="460.8" x2="460.8" y1="0" y2="512" fill="none" stroke="#FFF" opacity=".4"/><line x1="443.733" x2="443.733" y1="0" y2="512" fill="none" stroke="#FFF" opacity=".4"/></g><g><line x1="153.6" x2="153.6" y1="0" y2="512" fill="none" stroke="#FFF" opacity=".4"/><line x1="136.533" x2="136.533" y1="0" y2="512" fill="none" stroke="#FFF" opacity=".4"/><line x1="119.467" x2="119.467" y1="0" y2="512" fill="none" stroke="#FFF" opacity=".4"/><line x1="102.4" x2="102.4" y1="0" y2="512" fill="none" stroke="#FFF" opacity=".4"/></g></g><line x1="256.001" x2="256.001" y1="0" y2="512" fill="none" stroke="#FFF" opacity=".8"/><line x1="426.667" x2="426.667" y1="0" y2="512" fill="none" stroke="#FFF" opacity=".8"/><line x1="341.334" x2="341.334" y1="0" y2="512" fill="none" stroke="#FFF" stroke-width="1.75"/><line x1="0" x2="512.001" y1="341.334" y2="341.334" fill="none" stroke="#FFF" stroke-width="1.75"/><line x1="0" x2="512" y1="170.667" y2="170.667" fill="none" stroke="#FFF" stroke-width="1.75"/><line x1="0" x2="512" y1="425.118" y2="425.118" fill="none" stroke="#FFF" opacity=".8"/><line x1="0" x2="511.999" y1="254.45" y2="254.449" fill="none" stroke="#FFF" opacity=".8"/><line x1="0" x2="511.999" y1="83.784" y2="83.783" fill="none" stroke="#FFF" opacity=".8"/></g><g><g><line x1="0" x2="512" y1="443.733" y2="443.733" fill="none" stroke="#FFF" opacity=".4"/><line x1="0" x2="512" y1="460.799" y2="460.799" fill="none" stroke="#FFF" opacity=".4"/><line x1="0" x2="512" y1="477.867" y2="477.867" fill="none" stroke="#FFF" opacity=".4"/><line x1="0" x2="512" y1="494.933" y2="494.933" fill="none" stroke="#FFF" opacity=".4"/></g><g><line x1="0" x2="512" y1="273.065" y2="273.065" fill="none" stroke="#FFF" opacity=".4"/><line x1="0" x2="512" y1="290.133" y2="290.133" fill="none" stroke="#FFF" opacity=".4"/><line x1="0" x2="512" y1="307.199" y2="307.199" fill="none" stroke="#FFF" opacity=".4"/><line x1="0" x2="512" y1="324.267" y2="324.267" fill="none" stroke="#FFF" opacity=".4"/></g><g><line x1=".001" x2="512" y1="187.732" y2="187.732" fill="none" stroke="#FFF" opacity=".4"/><line x1=".001" x2="512" y1="204.8" y2="204.8" fill="none" stroke="#FFF" opacity=".4"/><line x1=".001" x2="512" y1="221.866" y2="221.866" fill="none" stroke="#FFF" opacity=".4"/><line x1=".001" x2="512" y1="238.933" y2="238.933" fill="none" stroke="#FFF" opacity=".4"/></g><g><line x1=".001" x2="512" y1="102.399" y2="102.399" fill="none" stroke="#FFF" opacity=".4"/><line x1=".001" x2="512" y1="119.467" y2="119.467" fill="none" stroke="#FFF" opacity=".4"/><line x1=".001" x2="512" y1="136.533" y2="136.533" fill="none" stroke="#FFF" opacity=".4"/><line x1=".001" x2="512" y1="153.6" y2="153.6" fill="none" stroke="#FFF" opacity=".4"/></g><g><line x1=".001" x2="512" y1="17.066" y2="17.066" fill="none" stroke="#FFF" opacity=".4"/><line x1=".001" x2="512" y1="34.134" y2="34.134" fill="none" stroke="#FFF" opacity=".4"/><line x1=".001" x2="512" y1="51.2" y2="51.2" fill="none" stroke="#FFF" opacity=".4"/><line x1=".001" x2="512" y1="68.267" y2="68.267" fill="none" stroke="#FFF" opacity=".4"/></g><g><line x1="0" x2="512" y1="358.4" y2="358.4" fill="none" stroke="#FFF" opacity=".4"/><line x1="0" x2="512" y1="375.466" y2="375.467" fill="none" stroke="#FFF" opacity=".4"/><line x1="0" x2="512" y1="392.534" y2="392.534" fill="none" stroke="#FFF" opacity=".4"/><line x1="0" x2="512" y1="409.599" y2="409.599" fill="none" stroke="#FFF" opacity=".4"/></g></g></g></g><g id="Ebene_4"><rect width="512.001" height="512" fill="#005CA0" opacity=".65"/></g><g id="Maße"><g><path fill="#FFF" d="M31.262,415.02h23.436c11.928,0,17.304,7.979,17.304,18.479c0,12.265-6.972,18.648-19.656,18.648h-5.46 v22.848H31.262V415.02z M46.886,440.892h2.94c3.948,0,6.048-2.269,6.048-7.309c0-4.956-2.1-7.308-6.048-7.308h-2.94V440.892z"/><path fill="#FFF" d="M88.969,451.392L73.681,415.02h17.136l5.88,20.916h0.168l5.88-20.916h17.136l-15.288,36.372v23.604H88.969 V451.392z"/><path fill="#FFF" d="M146.348,432.324v-1.428c0-3.528-1.428-6.468-4.452-6.468c-3.36,0-4.872,2.604-4.872,5.292 c0,11.844,25.536,6.048,25.536,27.972c0,12.768-7.476,18.479-21.252,18.479c-12.936,0-20.16-4.452-20.16-16.884v-2.1h15.12v1.428 c0,5.124,2.1,6.972,5.124,6.972c3.192,0,5.04-2.52,5.04-5.796c0-11.844-24.528-5.964-24.528-27.216 c0-12.096,6.468-18.731,19.656-18.731c13.608,0,19.404,5.628,19.404,18.479H146.348z"/><path fill="#FFF" d="M193.723,433.248c0-6.804-1.26-8.819-4.284-8.819c-4.788,0-5.292,4.367-5.292,20.579 s0.504,20.58,5.292,20.58c3.864,0,4.704-3.359,4.704-14.699h15.12v4.451c0,16.8-9.828,20.832-19.824,20.832 c-17.556,0-21.42-8.819-21.42-31.164c0-22.932,5.208-31.163,21.42-31.163c14.112,0,19.404,7.392,19.404,18.983v3.78h-15.12 V433.248z"/><path fill="#FFF" d="M226.398,415.02h19.656l14.616,59.976h-16.632l-1.596-10.5H230.01l-1.596,10.5h-16.632L226.398,415.02z M236.31,427.284h-0.168l-4.284,25.452h8.736L236.31,427.284z"/><path fill="#FFF" d="M265.954,415.02h35.531v12.768h-19.907v10.248h18.647v12.264h-18.647v24.696h-15.624V415.02z"/><path fill="#FFF" d="M308.037,415.02h35.531v12.768h-19.907v10.248h18.647v12.264h-18.647v24.696h-15.624V415.02z"/><path fill="#FFF" d="M369.775,413.844c15.96,0,21.42,8.735,21.42,31.163c0,22.429-5.46,31.164-21.42,31.164 s-21.42-8.735-21.42-31.164C348.355,422.58,353.815,413.844,369.775,413.844z M369.775,465.587c4.788,0,5.292-4.368,5.292-20.58 s-0.504-20.579-5.292-20.579s-5.292,4.367-5.292,20.579S364.987,465.587,369.775,465.587z"/><path fill="#FFF" d="M397.505,415.02h15.624v47.208h19.235v12.768h-34.859V415.02z"/><path fill="#FFF" d="M439.076,415.02h22.68c18.06,0,18.983,14.28,18.983,29.987c0,15.708-0.924,29.988-18.983,29.988h-22.68 V415.02z M454.7,463.74h3.107c6.048,0,6.804-2.521,6.804-18.732s-0.756-18.731-6.804-18.731H454.7V463.74z"/></g><g><path fill="#FFF" stroke="#FFF" stroke-width="2.618" d="M206.895,372.482c0,0-69.404-7.534-69.404-80.516 s62.25-85.145,66.901-85.145s162.538,0,162.538,0s20.391-2.862,20.391-26.475c0-23.611-17.527-23.611-20.391-23.611 s-135.312,0-135.312,0s-6.796,12.163-20.035,12.163c-13.237,0-81.211,0-81.211,0s-22.899-2.502-25.402-9.302 c8.588-2.861,63.145-15.708,63.145-15.708l-80.079-14.858c0,0,5.366-53.25,35.912-53.25s82.557,0,82.557,0 s22.296,5.367,31.377,23.117c17.748,0,110.153,0,138.224,0c28.072,0,70.499,26.846,70.499,82.475 c0,55.631-42.542,80.502-80.502,80.502s-152.516,0-152.516,0s-19.635,4.582-19.635,27.488s18.98,26.179,18.98,26.179 l121.521,0.173h51.672c0,0-25.839,56.768-61.864,56.768c-36.024,0-70.959,0-70.959,0H206.895z"/><circle cx="135.783" cy="105.325" r="8.364" fill="#005CA0"/></g><g><g><line x1="198.098" x2="198.098" y1="87.283" y2="157.828" fill="none" stroke="#005CA0" stroke-width="1.4"/><g><polygon fill="#005CA0" points="194.201 90.057 198.266 74.88 202.336 90.057"/></g><g><polygon fill="#005CA0" points="194.201 155.054 198.266 170.231 202.336 155.054"/></g></g></g><line x1="31.322" x2="175.349" y1="75.781" y2="75.781" fill="none" stroke="#FFF" stroke-width="1.4"/><g><g><line x1="154.981" x2="158.06" y1="233.864" y2="233.864" fill="none" stroke="#005CA0" stroke-width="1.4"/><line x1="164.327" x2="424.442" y1="233.864" y2="233.864" fill="none" stroke="#005CA0" stroke-dasharray="6.268 6.268" stroke-width="1.4"/><line x1="427.576" x2="430.654" y1="233.864" y2="233.864" fill="none" stroke="#005CA0" stroke-width="1.4"/></g></g><g><line x1="137.822" x2="202.866" y1="270.107" y2="270.107" fill="none" stroke="#005CA0" stroke-width="2"/><line x1="136.442" x2="161.339" y1="287.362" y2="270.187" fill="none" stroke="#005CA0" stroke-linecap="round" stroke-width="2"/><line x1="137.24" x2="146.087" y1="276.21" y2="270.107" fill="none" stroke="#005CA0" stroke-linecap="round" stroke-width="2"/><line x1="136.442" x2="179.471" y1="299.802" y2="270.119" fill="none" stroke="#005CA0" stroke-linecap="round" stroke-width="2"/><line x1="139.816" x2="194.857" y1="308.103" y2="270.135" fill="none" stroke="#005CA0" stroke-linecap="round" stroke-width="2"/><line x1="154.981" x2="197.496" y1="308.103" y2="278.774" fill="none" stroke="#005CA0" stroke-linecap="round" stroke-width="2"/><line x1="170.445" x2="195.472" y1="307.991" y2="290.727" fill="none" stroke="#005CA0" stroke-linecap="round" stroke-width="2"/><line x1="183.591" x2="196.843" y1="308.189" y2="299.048" fill="none" stroke="#005CA0" stroke-linecap="round" stroke-width="2"/><line x1="137.24" x2="203.615" y1="308.103" y2="308.103" fill="none" stroke="#005CA0" stroke-width="2"/></g><line x1="52.341" x2="175.349" y1="169.329" y2="169.329" fill="none" stroke="#FFF" stroke-width="1.909"/><line x1="31.322" x2="480.678" y1="372.274" y2="372.274" fill="none" stroke="#FFF" stroke-width="2.181"/><line x1="87.41" x2="87.41" y1="129.999" y2="35.829" fill="none" stroke="#FFF" stroke-width="1.4"/><line x1="446.604" x2="446.604" y1="188.256" y2="35.829" fill="none" stroke="#FFF" stroke-width="1.4"/><g><g><line x1="66.433" x2="66.433" y1="88.185" y2="156.926" fill="none" stroke="#FFF" stroke-width="1.4"/><g><polygon fill="#FFF" points="62.536 90.958 66.601 75.781 70.671 90.958"/></g><g><polygon fill="#FFF" points="62.536 154.152 66.601 169.329 70.671 154.152"/></g></g></g><line x1="316.32" x2="460.348" y1="262.056" y2="262.056" fill="none" stroke="#FFF" stroke-width="1.4"/><line x1="337.339" x2="460.348" y1="315.461" y2="315.461" fill="none" stroke="#FFF" stroke-width="1.4"/><line x1="337.339" x2="480.678" y1="97.962" y2="97.962" fill="none" stroke="#FFF" stroke-width="1.511"/><g><g><line x1="446.604" x2="446.604" y1="275.345" y2="302.944" fill="none" stroke="#FFF" stroke-width="1.4"/><g><polygon fill="#FFF" points="442.707 278.119 446.771 262.941 450.842 278.119"/></g><g><polygon fill="#FFF" points="442.707 300.17 446.771 315.348 450.842 300.17"/></g></g></g><g><g><line x1="473.098" x2="473.098" y1="110.365" y2="359.871" fill="none" stroke="#FFF" stroke-width="1.4"/><g><polygon fill="#FFF" points="469.201 113.139 473.266 97.962 477.336 113.139"/></g><g><polygon fill="#FFF" points="469.201 357.097 473.266 372.274 477.336 357.097"/></g></g></g><g><g><line x1="41.026" x2="41.026" y1="88.185" y2="360.079" fill="none" stroke="#FFF" stroke-width="1.4"/><g><polygon fill="#FFF" points="37.129 90.958 41.194 75.781 45.264 90.958"/></g><g><polygon fill="#FFF" points="37.129 357.305 41.194 372.482 45.264 357.305"/></g></g></g><g><g><line x1="100.438" x2="433.036" y1="50.329" y2="50.329" fill="none" stroke="#FFF" stroke-width="1.4"/><g><polygon fill="#FFF" points="103.212 54.226 88.035 50.161 103.212 46.091"/></g><g><polygon fill="#FFF" points="430.263 54.226 445.439 50.161 430.263 46.091"/></g></g></g><g><g><line x1="262.697" x2="262.697" y1="326.605" y2="361.124" fill="none" stroke="#005CA0" stroke-width="1.4"/><g><polygon fill="#005CA0" points="258.801 329.379 262.865 314.202 266.936 329.379"/></g><g><polygon fill="#005CA0" points="258.801 358.35 262.865 373.527 266.936 358.35"/></g></g></g><g><path fill="none" d="M-231.303,372.482"/></g><g><path fill="none" d="M-231.303,316.461"/></g><g><path fill="none" d="M-295.902,170.231"/></g><g><path fill="none" d="M-295.902,74.88"/></g><path fill="none" stroke="#FFF" stroke-width="1.4" d="M-406.59,129.999"/></g></svg>